<?xml version="1.0" encoding="UTF-8"?> <!-- Generator: Adobe Illustrator 19.0.0, SVG Export Plug-In . SVG Version: 6.00 Build 0) --> <svg xmlns="http://www.w3.org/2000/svg" xmlns:xlink="http://www.w3.org/1999/xlink" id="Layer_1" x="0px" y="0px" viewBox="0 0 511.98 511.98" style="enable-background:new 0 0 511.98 511.98;" xml:space="preserve"> <g> <path style="fill:#434A54;" d="M95.996,463.985H31.999c-5.891,0-10.664-4.781-10.664-10.671v-31.999 c0-5.891,4.773-10.672,10.664-10.672h63.997c5.891,0,10.671,4.781,10.671,10.672v31.999 C106.667,459.204,101.886,463.985,95.996,463.985z"></path> <path style="fill:#434A54;" d="M479.981,463.985h-63.998c-5.89,0-10.655-4.781-10.655-10.671v-31.999 c0-5.891,4.766-10.672,10.655-10.672h63.998c5.905,0,10.671,4.781,10.671,10.672v31.999 C490.652,459.204,485.886,463.985,479.981,463.985z"></path> </g> <path style="fill:#656D78;" d="M501.324,69.33H10.671C4.781,69.33,0,74.095,0,80.001v341.314c0,5.891,4.781,10.672,10.671,10.672 h490.653c5.875,0,10.656-4.781,10.656-10.672V80.001C511.98,74.095,507.199,69.33,501.324,69.33z"></path> <path style="fill:#434A54;" d="M266.661,101.328H42.67c-5.891,0-10.671,4.765-10.671,10.671v277.317 c0,5.891,4.781,10.672,10.671,10.672h223.991c5.891,0,10.672-4.781,10.672-10.672V111.999 C277.333,106.093,272.552,101.328,266.661,101.328z"></path> <g> <path style="fill:#A0D468;" d="M149.338,314.648c-5.89,0-10.664,4.781-10.664,10.672c0,5.89,4.773,10.671,10.664,10.671 s10.672-4.781,10.672-10.671C160.01,319.429,155.228,314.648,149.338,314.648z"></path> <path style="fill:#A0D468;" d="M149.361,165.325c-16.718,0-29.991,5.062-39.452,15.062c-13.734,14.483-13.992,34.342-13.906,38.201 c0,0.016-0.008,0.047-0.008,0.062c0,0.078,0.016,0.156,0.016,0.234c0.008,0.172,0.008,0.297,0.016,0.344l0,0 c0.305,5.625,4.945,10.094,10.64,10.094c5.891,0,10.664-4.781,10.664-10.672c0-0.172-0.016-0.344-0.023-0.5l0.023-0.016 c-0.008-0.141-0.484-14.171,8.164-23.186c5.281-5.5,13.304-8.296,23.866-8.296c12.671,0,21.218,3.093,26.116,9.437 c3.875,5.015,5.844,12.609,5.859,22.577c0.016,7.156-6.125,16.328-17.289,25.874c-9.726,8.297-19.726,13.812-19.819,13.859 c-3.422,1.875-5.547,5.469-5.547,9.359l-0.016,25.545c0,5.891,4.773,10.672,10.664,10.672c0,0,0,0,0.008,0 c5.883,0,10.656-4.781,10.664-10.672l0.008-19.437c13.031-8.093,42.708-29.374,42.662-55.232 C202.609,184.262,183.68,165.325,149.361,165.325z"></path> </g> <path style="fill:#434A54;" d="M472.7,101.875L312.707,48.549c-3.25-1.094-6.844-0.547-9.625,1.453 c-2.781,2.016-4.421,5.234-4.421,8.656v383.984c0,3.438,1.64,6.656,4.421,8.656c1.844,1.328,4.031,2.016,6.25,2.016 c1.125,0,2.266-0.188,3.375-0.547L472.7,399.425c4.344-1.438,7.281-5.516,7.281-10.109V111.999 C479.981,107.406,477.044,103.328,472.7,101.875z"></path> <path style="fill:#AAB2BC;" d="M309.332,48.002h-42.671c-5.891,0-10.671,4.765-10.671,10.656v383.984 c0,5.891,4.78,10.672,10.671,10.672h42.671c5.874,0,10.655-4.781,10.655-10.672V58.658 C319.987,52.767,315.206,48.002,309.332,48.002z"></path> <path style="fill:#FFCE54;" d="M363.58,207.996c-11.968,0-21.343,18.733-21.343,42.654s9.375,42.67,21.343,42.67 c11.967,0,21.342-18.749,21.342-42.67S375.547,207.996,363.58,207.996z"></path> <g> </g> <g> </g> <g> </g> <g> </g> <g> </g> <g> </g> <g> </g> <g> </g> <g> </g> <g> </g> <g> </g> <g> </g> <g> </g> <g> </g> <g> </g> </svg> 