<?xml version="1.0" encoding="UTF-8"?> <!-- Generator: Adobe Illustrator 22.0.1, SVG Export Plug-In . SVG Version: 6.00 Build 0) --> <svg xmlns="http://www.w3.org/2000/svg" xmlns:xlink="http://www.w3.org/1999/xlink" id="Layer_1" x="0px" y="0px" viewBox="0 0 30 46.4" style="enable-background:new 0 0 30 46.4;" xml:space="preserve"> <style type="text/css"> .st0{fill:#FDD103;} .st1{fill:#FDDC40;} .st2{fill:#FFFFFF;} .st3{fill:#FFF3BE;} .st4{fill:none;} .st5{fill:#FDE780;} </style> <rect x="0.8" y="5.5" class="st0" width="3.6" height="35.4"></rect> <rect x="4.7" y="3.3" class="st1" width="3.6" height="39.9"></rect> <polygon class="st2" points="7.7,1.5 7.7,44.9 9.9,46.4 30,34.8 30,11.6 9.9,0 "></polygon> <polygon class="st3" points="7.7,1.5 9,0.8 20.8,16 20.9,30.5 9,45.7 7.7,44.9 "></polygon> <path class="st4" d="M22.4,30.5"></path> <path class="st4" d="M30,34.8"></path> <polygon class="st5" points="3.8,42.7 4.7,43.2 15,29.5 14.9,17 4.7,3.3 3.8,3.8 "></polygon> <polygon class="st1" points="0,40.5 0.8,40.9 9.1,28.7 9,17.9 3.8,10 2.3,7.8 0.8,5.5 0,6 "></polygon> </svg> 