<?xml version="1.0" encoding="UTF-8"?> <!-- Generator: Adobe Illustrator 19.0.0, SVG Export Plug-In . SVG Version: 6.00 Build 0) --> <svg xmlns="http://www.w3.org/2000/svg" xmlns:xlink="http://www.w3.org/1999/xlink" id="Layer_1" x="0px" y="0px" viewBox="0 0 511.98 511.98" style="enable-background:new 0 0 511.98 511.98;" xml:space="preserve"> <polygon style="fill:#E6E9ED;" points="388.385,70.247 324.388,6.25 318.138,0 309.328,0 31.986,0 10.659,0 10.659,21.343 10.659,490.669 10.659,511.98 31.986,511.98 373.324,511.98 394.635,511.98 394.635,490.669 394.635,85.34 394.635,76.497 "></polygon> <g> <path style="fill:#434A54;" d="M85.328,298.676h234.654c5.875,0,10.656-4.781,10.656-10.687c0-5.875-4.781-10.656-10.656-10.656 H85.328c-5.906,0-10.671,4.781-10.671,10.656C74.658,293.894,79.423,298.676,85.328,298.676z"></path> <path style="fill:#434A54;" d="M319.983,341.331H85.328c-5.906,0-10.671,4.781-10.671,10.655c0,5.906,4.765,10.688,10.671,10.688 h234.654c5.875,0,10.656-4.781,10.656-10.688C330.638,346.112,325.858,341.331,319.983,341.331z"></path> <path style="fill:#434A54;" d="M202.652,405.327H85.328c-5.906,0-10.671,4.781-10.671,10.656c0,5.906,4.765,10.688,10.671,10.688 h117.323c5.891,0,10.672-4.781,10.672-10.688C213.324,410.108,208.542,405.327,202.652,405.327z"></path> </g> <polygon style="fill:#E6E9ED;" points="472.82,341.112 444.478,341.112 415.979,440.671 458.634,469.106 501.319,440.671 "></polygon> <path style="fill:#656D78;" d="M458.634,63.779c-23.562,0-42.655,19.093-42.655,42.654v287.989h85.341V106.433 C501.319,82.872,482.194,63.779,458.634,63.779z"></path> <polygon style="fill:#CCD1D9;" points="394.635,76.497 318.138,76.497 318.138,0 "></polygon> <path style="fill:#F6BB42;" d="M160.529,213.077c-5.891,0-10.664-4.773-10.664-10.664V73.755c0-5.898,4.773-10.671,10.664-10.671 s10.664,4.773,10.664,10.671v128.659C171.193,208.304,166.419,213.077,160.529,213.077z"></path> <path style="fill:#434A54;" d="M203.191,213.077h-85.324c-5.891,0-10.672-4.773-10.672-10.664s4.781-10.664,10.672-10.664h85.324 c5.891,0,10.672,4.773,10.672,10.664S209.081,213.077,203.191,213.077z"></path> <path style="fill:#FFCE54;" d="M224.62,106.417H96.625c-5.891,0-10.663-4.773-10.663-10.663c0-5.898,4.772-10.671,10.663-10.671 H224.62c5.891,0,10.672,4.773,10.672,10.671C235.292,101.644,230.51,106.417,224.62,106.417z"></path> <g> <path style="fill:#434A54;" d="M106.406,149.08H85.071c-5.891,0-10.663-4.773-10.663-10.664c0-5.89,4.772-10.664,10.663-10.664 h21.335c5.891,0,10.664,4.773,10.664,10.664S112.297,149.08,106.406,149.08z"></path> <path style="fill:#434A54;" d="M235.096,149.08h-21.327c-5.898,0-10.672-4.773-10.672-10.664c0-5.89,4.773-10.664,10.672-10.664 h21.327c5.891,0,10.671,4.773,10.671,10.664C245.766,144.307,240.986,149.08,235.096,149.08z"></path> </g> <g> </g> <g> </g> <g> </g> <g> </g> <g> </g> <g> </g> <g> </g> <g> </g> <g> </g> <g> </g> <g> </g> <g> </g> <g> </g> <g> </g> <g> </g> </svg> 