<?xml version="1.0" encoding="UTF-8"?> <!-- Generator: Adobe Illustrator 19.0.0, SVG Export Plug-In . SVG Version: 6.00 Build 0) --> <svg xmlns="http://www.w3.org/2000/svg" xmlns:xlink="http://www.w3.org/1999/xlink" id="Layer_1" x="0px" y="0px" viewBox="0 0 512 512" style="enable-background:new 0 0 512 512;" xml:space="preserve"> <path style="fill:#FFC36E;" d="M450.207,220.69H61.793V8.828C61.793,3.953,65.746,0,70.621,0h370.759 c4.875,0,8.828,3.953,8.828,8.828V220.69z"></path> <path style="fill:#F5B464;" d="M261.677,107.737c-1.535-1.173-4.086-1.806-6.017-1.806c-1.931,0-3.81,0.633-5.35,1.806 L102.06,220.69h29.13l124.801-95.086l124.8,95.086h29.13L261.677,107.737z"></path> <path style="fill:#FFD782;" d="M234.41,133.386c12.716,9.826,30.464,9.826,43.181,0L447.215,2.312C445.653,0.914,443.64,0,441.379,0 H70.621c-2.261,0-4.274,0.914-5.836,2.312L234.41,133.386z"></path> <path style="fill:#E4EAF6;" d="M450.207,512H61.793c-9.751,0-17.655-7.904-17.655-17.655V229.517 c0-9.751,7.904-17.655,17.655-17.655h388.414c9.751,0,17.655,7.904,17.655,17.655v264.828C467.862,504.096,459.958,512,450.207,512z "></path> <circle style="fill:#FF6E6E;" cx="114.759" cy="282.483" r="26.483"></circle> <circle style="fill:#FFFFFF;" cx="150.069" cy="282.483" r="26.483"></circle> <path style="fill:#959CB3;" d="M414.897,467.862h-70.621c-4.875,0-8.828-3.953-8.828-8.828s3.953-8.828,8.828-8.828h70.621 c4.875,0,8.828,3.953,8.828,8.828S419.772,467.862,414.897,467.862z"></path> <g> <path style="fill:#AFB9D2;" d="M414.897,432.552H264.828c-4.875,0-8.828-3.953-8.828-8.828c0-4.875,3.953-8.828,8.828-8.828 h150.069c4.875,0,8.828,3.953,8.828,8.828C423.724,428.599,419.772,432.552,414.897,432.552z"></path> <path style="fill:#AFB9D2;" d="M414.897,397.241H264.828c-4.875,0-8.828-3.953-8.828-8.828s3.953-8.828,8.828-8.828h150.069 c4.875,0,8.828,3.953,8.828,8.828S419.772,397.241,414.897,397.241z"></path> </g> <g> </g> <g> </g> <g> </g> <g> </g> <g> </g> <g> </g> <g> </g> <g> </g> <g> </g> <g> </g> <g> </g> <g> </g> <g> </g> <g> </g> <g> </g> </svg> 